<?xml version="1.0" standalone="no"?>
<!DOCTYPE svg PUBLIC "-//W3C//DTD SVG 20010904//EN"
 "http://www.w3.org/TR/2001/REC-SVG-20010904/DTD/svg10.dtd">
<svg version="1.0" xmlns="http://www.w3.org/2000/svg"
 width="378.000000pt" height="378.000000pt" viewBox="0 0 378.000000 378.000000"
 preserveAspectRatio="xMidYMid meet">
<metadata>
Created by potrace 1.14, written by Peter Selinger 2001-2017
</metadata>
<g transform="translate(0.000000,378.000000) scale(0.100000,-0.100000)"
fill="#000000" stroke="none">
<path d="M1739 3776 c-2 -2 -31 -7 -64 -10 -92 -10 -122 -15 -231 -41 -109
-26 -223 -62 -238 -76 -6 -5 -16 -9 -23 -9 -19 0 -199 -88 -273 -134 -167
-102 -365 -274 -475 -411 -22 -28 -42 -52 -45 -55 -3 -3 -34 -48 -70 -100 -35
-52 -68 -96 -72 -98 -4 -2 -8 -10 -8 -17 0 -8 -13 -38 -29 -67 -40 -72 -106
-234 -126 -308 -44 -160 -51 -188 -61 -257 -3 -26 -9 -57 -11 -68 -3 -11 -6
-99 -7 -195 -4 -204 11 -340 55 -512 190 -748 839 -1316 1607 -1405 86 -10
357 -10 446 0 339 37 712 198 982 422 142 118 315 318 405 467 19 32 40 58 47
58 6 0 12 9 12 21 0 11 18 58 40 105 120 255 175 505 175 799 0 247 -23 392
-95 607 -162 485 -520 887 -983 1107 -246 116 -488 171 -778 177 -97 2 -178 2
-180 0z"/>
</g>
</svg>
